<?xml version="1.0" standalone="no"?>
<!DOCTYPE svg PUBLIC "-//W3C//DTD SVG 20010904//EN"
 "http://www.w3.org/TR/2001/REC-SVG-20010904/DTD/svg10.dtd">
<svg version="1.0" xmlns="http://www.w3.org/2000/svg"
 width="200.000000pt" height="200.000000pt" viewBox="0 0 200.000000 200.000000"
 preserveAspectRatio="xMidYMid meet">

<g transform="translate(0.000000,200.000000) scale(0.100000,-0.100000)"
fill="#000000" stroke="none">
<path d="M950 1427 c-14 -6 -26 -12 -28 -13 -2 -1 -5 -31 -8 -66 -3 -46 0 -76
12 -103 16 -39 16 -39 -10 -60 -22 -18 -39 -21 -96 -20 -38 1 -73 4 -76 8 -11
11 -63 8 -85 -3 -25 -14 -24 -10 10 58 36 71 52 85 98 86 31 1 38 5 46 29 14
42 -9 61 -60 53 -72 -13 -236 -189 -258 -278 -6 -23 -2 -30 32 -51 56 -35 99
-47 167 -47 l61 0 47 -92 c45 -88 67 -155 68 -206 0 -22 -1 -23 -117 -20
l-118 3 -3 73 -3 72 -59 0 c-53 0 -60 -2 -60 -20 0 -15 -7 -20 -25 -20 -23 0
-25 -3 -25 -49 l0 -50 -45 -7 c-45 -6 -66 -34 -26 -34 11 0 23 -4 26 -10 3 -5
15 -10 25 -10 15 0 19 -9 22 -48 3 -41 6 -47 26 -46 17 0 22 -5 22 -23 0 -22
4 -23 60 -23 l60 0 0 68 c0 40 5 73 12 80 17 17 699 17 716 0 7 -7 12 -40 12
-80 l0 -68 60 0 c56 0 60 1 60 23 0 18 5 23 23 23 19 -1 22 5 25 46 3 39 7 48
22 48 10 0 22 5 25 10 3 6 15 10 26 10 40 0 19 28 -26 34 l-45 7 0 50 c0 46
-2 49 -25 49 -18 0 -25 5 -25 20 0 18 -7 20 -60 20 l-59 0 -3 -72 -3 -73 -119
-3 -119 -3 7 61 c8 68 15 87 69 181 39 70 53 79 118 79 47 0 153 36 174 60 14
16 15 24 6 51 -29 85 -196 250 -265 263 -48 9 -56 3 -56 -45 l0 -39 43 0 c49
0 67 -15 111 -91 32 -55 32 -63 5 -48 -12 6 -35 8 -53 5 -64 -13 -161 -12
-190 2 -26 12 -27 17 -21 50 10 53 6 184 -7 199 -13 16 -83 16 -118 0z"/>
<path d="M714 639 c-55 -27 -72 -122 -29 -164 19 -20 34 -25 73 -25 59 0 78
14 86 63 7 35 5 37 -19 37 -17 0 -25 -5 -25 -18 0 -42 -45 -55 -75 -22 -22 25
-13 64 20 86 23 15 37 15 75 0 8 -3 24 1 34 9 20 15 20 15 0 30 -22 16 -108
19 -140 4z"/>
<path d="M880 646 c0 -2 11 -33 24 -69 14 -35 24 -66 22 -68 -2 -2 -6 -16 -10
-31 -6 -26 -4 -28 23 -28 25 0 30 5 35 35 4 19 25 58 48 87 23 29 45 59 51 66
7 9 2 12 -19 12 -22 0 -36 -10 -59 -41 l-30 -40 -17 40 c-14 33 -22 41 -43 41
-14 0 -25 -2 -25 -4z"/>
<path d="M1096 633 c-2 -10 -10 -45 -16 -78 -6 -33 -13 -70 -16 -82 -4 -19 0
-23 21 -23 19 0 26 6 31 28 17 78 19 79 37 34 9 -23 23 -42 31 -42 7 0 26 18
41 40 15 22 30 40 32 40 4 0 -3 -46 -14 -83 -4 -15 0 -18 23 -15 26 3 29 8 40
63 28 142 27 135 1 135 -18 0 -36 -15 -66 -55 -23 -31 -45 -54 -49 -51 -4 2
-16 27 -27 55 -15 40 -24 51 -42 51 -12 0 -24 -8 -27 -17z"/>
</g>
</svg>
